<?xml version="1.0" encoding="UTF-8" standalone="no"?>
<svg
   xmlns:dc="http://purl.org/dc/elements/1.1/"
   xmlns:cc="http://creativecommons.org/ns#"
   xmlns:rdf="http://www.w3.org/1999/02/22-rdf-syntax-ns#"
   xmlns:svg="http://www.w3.org/2000/svg"
   xmlns="http://www.w3.org/2000/svg"
   xmlns:sodipodi="http://sodipodi.sourceforge.net/DTD/sodipodi-0.dtd"
   xmlns:inkscape="http://www.inkscape.org/namespaces/inkscape"
   viewBox="0 0 104.21 168.21"
   version="1.1"
   id="svg3809"
   sodipodi:docname="kestros-k-logo-only-color.svg"
   inkscape:version="0.92.2 5c3e80d, 2017-08-06">
  <metadata
     id="metadata3815">
    <rdf:RDF>
      <cc:Work
         rdf:about="">
        <dc:format>image/svg+xml</dc:format>
        <dc:type
           rdf:resource="http://purl.org/dc/dcmitype/StillImage" />
        <dc:title>Kestros</dc:title>
      </cc:Work>
    </rdf:RDF>
  </metadata>
  <defs
     id="defs3813">
    <clipPath
       clipPathUnits="userSpaceOnUse"
       id="clipPath3829">
      <g
         inkscape:label="Clip"
         id="use3831">
        <rect
           y="136.21001"
           x="-6"
           height="34.666668"
           width="116.00001"
           id="rect3835" />
      </g>
    </clipPath>
    <clipPath
       clipPathUnits="userSpaceOnUse"
       id="clipPath3884">
      <rect
         id="rect3886"
         width="110"
         height="137.5"
         x="-3.5"
         y="-1.7899933" />
    </clipPath>
  </defs>
  <sodipodi:namedview
     pagecolor="#ffffff"
     bordercolor="#666666"
     borderopacity="1"
     objecttolerance="10"
     gridtolerance="10"
     guidetolerance="10"
     inkscape:pageopacity="0"
     inkscape:pageshadow="2"
     inkscape:window-width="957"
     inkscape:window-height="734"
     id="namedview3811"
     showgrid="false"
     inkscape:zoom="2"
     inkscape:cx="73.548988"
     inkscape:cy="58.759115"
     inkscape:window-x="0"
     inkscape:window-y="0"
     inkscape:window-maximized="0"
     inkscape:current-layer="svg3809" />
  <title
     id="title3777">Kestros</title>
  <g
     id="g3874"
     clip-path="url(#clipPath3884)"
     transform="matrix(0.95967517,0,0,1.0316115,0,-0.7899915)">
    <g
       id="g3855">
      <g
         id="Layer_2"
         data-name="Layer 2">
        <g
           id="Layer_1-2"
           data-name="Layer 1">
          <path
             d="m 96.14,103.54 a 16.500503,16.500503 0 0 1 -16.5,28.58 L 33.25,105.35 V 67.24 Z"
             transform="translate(-0.25,-0.25)"
             style="fill:#0065ff"
             id="path3779"
             inkscape:connector-curvature="0" />
          <path
             d="m 101.83,8.55 a 16.5,16.5 0 0 1 -6,22.54 L 33.25,67.23 V 29.12 l 46,-26.61 a 16.5,16.5 0 0 1 22.54,6 z"
             transform="translate(-0.25,-0.25)"
             style="fill:#00a0ff"
             id="path3781"
             inkscape:connector-curvature="0" />
          <path
             d="m 33.25,105.35 v 12.4 a 16.5,16.5 0 0 1 -33,0 V 86.3 Z"
             transform="translate(-0.25,-0.25)"
             style="fill:#00bfff"
             id="path3783"
             inkscape:connector-curvature="0" />
          <polygon
             points="32.99,66.99 33,66.99 33,105.1 0,86.05 0,47.95 "
             style="fill:#2a4bff"
             id="polygon3785" />
          <polygon
             points="0,47.95 33,28.87 33,66.98 33,66.99 32.99,66.99 "
             style="fill:#0087ff"
             id="polygon3787" />
          <path
             d="M 33.25,16.75 V 29.12 L 0.25,48.2 V 16.75 a 16.5,16.5 0 1 1 33,0 z"
             transform="translate(-0.25,-0.25)"
             style="fill:#00bfff"
             id="path3789"
             inkscape:connector-curvature="0" />
          <path
             d="m 22.74,168.46 a 8.37,8.37 0 0 1 -6,-2.21 7.75,7.75 0 0 1 -2.32,-5.9 v -0.52 a 9.19,9.19 0 0 1 1,-4.4 7.67,7.67 0 0 1 3.66,-3.43 7.91,7.91 0 0 1 3.52,-0.69 7,7 0 0 1 5.26,2.12 8.62,8.62 0 0 1 2,6.08 v 1.18 H 17.51 a 5.57,5.57 0 0 0 1.57,4 5.18,5.18 0 0 0 3.82,1.5 5.88,5.88 0 0 0 2.8,-0.61 6.88,6.88 0 0 0 1.3,-0.98 1.18,1.18 0 0 1 1.48,-0.09 v 0 a 1.18,1.18 0 0 1 0.17,1.81 8.18,8.18 0 0 1 -5.91,2.14 z m -0.39,-14.82 a 4.34,4.34 0 0 0 -3.16,1.24 5.8,5.8 0 0 0 -1.58,3.49 h 9.11 v -0.21 a 5.05,5.05 0 0 0 -1.28,-3.34 4.08,4.08 0 0 0 -3.09,-1.18 z"
             transform="translate(-0.25,-0.25)"
             style="fill:#0030a0"
             id="path3791"
             inkscape:connector-curvature="0" />
          <path
             d="m 43.37,163.77 a 2,2 0 0 0 -0.95,-1.78 9.74,9.74 0 0 0 -3.32,-1.09 17.36,17.36 0 0 1 -3.74,-1.1 5.33,5.33 0 0 1 -2.06,-1.53 3.44,3.44 0 0 1 -0.66,-2.11 4.17,4.17 0 0 1 1.89,-3.44 7.86,7.86 0 0 1 4.83,-1.41 8.09,8.09 0 0 1 5,1.46 4.94,4.94 0 0 1 1.31,1.4 1.53,1.53 0 0 1 -1.31,2.31 v 0 a 1.52,1.52 0 0 1 -1.39,-0.91 2.74,2.74 0 0 0 -0.89,-1.09 4.36,4.36 0 0 0 -2.74,-0.84 4.54,4.54 0 0 0 -2.65,0.67 2.05,2.05 0 0 0 -1,1.76 1.69,1.69 0 0 0 0.89,1.54 11.51,11.51 0 0 0 3.22,1 18.65,18.65 0 0 1 3.77,1.13 5.44,5.44 0 0 1 2.15,1.59 3.64,3.64 0 0 1 0.7,2.25 4.11,4.11 0 0 1 -1.95,3.55 8.79,8.79 0 0 1 -5.06,1.34 9.93,9.93 0 0 1 -3.87,-0.7 6.2,6.2 0 0 1 -2.63,-2 4.92,4.92 0 0 1 -0.37,-0.56 1.48,1.48 0 0 1 1.33,-2.16 v 0 a 1.45,1.45 0 0 1 1.38,0.88 2.83,2.83 0 0 0 1.07,1.37 5.18,5.18 0 0 0 3.09,0.83 5.34,5.34 0 0 0 2.83,-0.65 2,2 0 0 0 1.13,-1.71 z"
             transform="translate(-0.25,-0.25)"
             style="fill:#0030a0"
             id="path3793"
             inkscape:connector-curvature="0" />
          <path
             d="m 64.25,153.09 a 8.35,8.35 0 0 1 4.94,-1.62 h 0.62 a 1.36,1.36 0 0 1 1.2,1.36 v 0 a 1.36,1.36 0 0 1 -1.44,1.36 h -0.54 a 3.86,3.86 0 0 0 -4.15,3.56 c 0,0.93 0,6.3 0,9 a 1.54,1.54 0 0 1 -1.55,1.55 v 0 a 1.56,1.56 0 0 1 -1.56,-1.56 v -7.37 c 0,-4.21 1.48,-5.37 2.48,-6.28 z"
             transform="translate(-0.25,-0.25)"
             style="fill:#0030a0"
             id="path3795"
             inkscape:connector-curvature="0" />
          <path
             d="m 71.61,159.73 a 9,9 0 0 1 1,-4.37 7.4,7.4 0 0 1 2.93,-3 8.56,8.56 0 0 1 4.27,-1.06 8,8 0 0 1 6,2.34 8.5,8.5 0 0 1 2.3,6.22 v 0.2 a 9.08,9.08 0 0 1 -1,4.33 7.29,7.29 0 0 1 -2.91,3 8.7,8.7 0 0 1 -4.34,1.07 8,8 0 0 1 -6,-2.34 8.45,8.45 0 0 1 -2.29,-6.19 z m 3.13,0.34 a 6.62,6.62 0 0 0 1.4,4.42 4.67,4.67 0 0 0 3.76,1.66 4.61,4.61 0 0 0 3.76,-1.69 7.21,7.21 0 0 0 1.4,-4.73 6.63,6.63 0 0 0 -1.42,-4.4 4.69,4.69 0 0 0 -3.78,-1.69 4.62,4.62 0 0 0 -3.71,1.66 7.18,7.18 0 0 0 -1.41,4.77 z"
             transform="translate(-0.25,-0.25)"
             style="fill:#0030a0"
             id="path3797"
             inkscape:connector-curvature="0" />
          <path
             d="m 101.35,163.77 a 2,2 0 0 0 -0.95,-1.78 9.59,9.59 0 0 0 -3.31,-1.09 17.65,17.65 0 0 1 -3.75,-1.1 5.37,5.37 0 0 1 -2,-1.53 3.44,3.44 0 0 1 -0.66,-2.11 4.17,4.17 0 0 1 1.89,-3.44 7.86,7.86 0 0 1 4.83,-1.41 8.11,8.11 0 0 1 5,1.46 4.94,4.94 0 0 1 1.31,1.4 1.53,1.53 0 0 1 -1.31,2.31 v 0 a 1.51,1.51 0 0 1 -1.39,-0.91 2.69,2.69 0 0 0 -0.9,-1.09 4.31,4.31 0 0 0 -2.73,-0.84 4.54,4.54 0 0 0 -2.65,0.67 2.05,2.05 0 0 0 -1,1.76 1.69,1.69 0 0 0 0.89,1.54 11.39,11.39 0 0 0 3.22,1 18.65,18.65 0 0 1 3.77,1.13 5.44,5.44 0 0 1 2.15,1.59 3.63,3.63 0 0 1 0.69,2.25 4.11,4.11 0 0 1 -1.95,3.55 8.77,8.77 0 0 1 -5.06,1.34 9.92,9.92 0 0 1 -3.86,-0.7 6.2,6.2 0 0 1 -2.63,-2 5,5 0 0 1 -0.38,-0.56 1.48,1.48 0 0 1 1.34,-2.16 v 0 a 1.42,1.42 0 0 1 1.37,0.88 2.91,2.91 0 0 0 1.08,1.37 5.17,5.17 0 0 0 3.08,0.83 5.38,5.38 0 0 0 2.84,-0.65 2,2 0 0 0 1.07,-1.71 z"
             transform="translate(-0.25,-0.25)"
             style="fill:#0030a0"
             id="path3799"
             inkscape:connector-curvature="0" />
          <path
             d="m 53,157.78 h 5 a 1.09,1.09 0 0 0 1.09,-1.09 v 0 A 1.09,1.09 0 0 0 58,155.6 h -5 v -2.48 a 1.55,1.55 0 0 0 -1.56,-1.54 v 0 a 1.54,1.54 0 0 0 -1.55,1.55 v 7.37 c 0,4.22 1.47,5.4 2.48,6.3 a 8.41,8.41 0 0 0 4.93,1.62 c 0.19,0 0.4,0 0.62,0 A 1.36,1.36 0 0 0 59.1,167 v 0 a 1.36,1.36 0 0 0 -1.44,-1.36 H 57.12 A 3.85,3.85 0 0 1 53,162.12 Z"
             transform="translate(-0.25,-0.25)"
             style="fill:#0030a0"
             id="path3801"
             inkscape:connector-curvature="0" />
          <path
             d="m 3.36,162.61 v -9.48 A 1.55,1.55 0 0 0 1.8,151.58 v 0 a 1.55,1.55 0 0 0 -1.55,1.55 v 13.73 a 1.56,1.56 0 0 0 1.55,1.56 v 0 a 1.56,1.56 0 0 0 1.56,-1.56 z"
             transform="translate(-0.25,-0.25)"
             style="fill:#0030a0"
             id="path3803"
             inkscape:connector-curvature="0" />
          <path
             d="m 10.92,168.42 v 0 a 1.45,1.45 0 0 0 0.85,-2.62 l -0.16,-0.12 -3.46,-2.54 -4.3,-3.14 3.88,-2.85 3.28,-2.4 0.76,-0.56 a 1.44,1.44 0 0 0 -0.85,-2.61 v 0 a 1.41,1.41 0 0 0 -0.86,0.28 L 1.4,158.2 v 0 3.61 0 l 8.66,6.35 a 1.47,1.47 0 0 0 0.86,0.26 z"
             transform="translate(-0.25,-0.25)"
             style="fill:#0030a0"
             id="path3805"
             inkscape:connector-curvature="0" />
        </g>
      </g>
    </g>
  </g>
</svg>
